{
	"patcher" : 	{
		"fileversion" : 1,
		"appversion" : 		{
			"major" : 6,
			"minor" : 1,
			"revision" : 7,
			"architecture" : "x86"
		}
,
		"rect" : [ 632.0, 378.0, 640.0, 480.0 ],
		"bglocked" : 0,
		"openinpresentation" : 1,
		"default_fontsize" : 12.0,
		"default_fontface" : 0,
		"default_fontname" : "Arial",
		"gridonopen" : 0,
		"gridsize" : [ 15.0, 15.0 ],
		"gridsnaponopen" : 0,
		"statusbarvisible" : 2,
		"toolbarvisible" : 1,
		"boxanimatetime" : 200,
		"imprint" : 0,
		"enablehscroll" : 1,
		"enablevscroll" : 1,
		"devicewidth" : 0.0,
		"description" : "",
		"digest" : "",
		"tags" : "",
		"boxes" : [ 			{
				"box" : 				{
					"fontname" : "Arial",
					"fontsize" : 12.0,
					"id" : "obj-8",
					"maxclass" : "newobj",
					"numinlets" : 1,
					"numoutlets" : 1,
					"outlettype" : [ "bang" ],
					"patching_rect" : [ 419.0, 120.0, 60.0, 20.0 ],
					"text" : "loadbang"
				}

			}
, 			{
				"box" : 				{
					"id" : "obj-7",
					"maxclass" : "button",
					"numinlets" : 1,
					"numoutlets" : 1,
					"outlettype" : [ "bang" ],
					"patching_rect" : [ 352.0, 94.0, 20.0, 20.0 ]
				}

			}
, 			{
				"box" : 				{
					"fontname" : "Arial",
					"fontsize" : 12.0,
					"id" : "obj-5",
					"maxclass" : "newobj",
					"numinlets" : 1,
					"numoutlets" : 2,
					"outlettype" : [ "", "" ],
					"patching_rect" : [ 356.0, 150.0, 74.0, 20.0 ],
					"text" : "patcherargs"
				}

			}
, 			{
				"box" : 				{
					"fontname" : "Arial",
					"fontsize" : 12.0,
					"id" : "obj-4",
					"maxclass" : "newobj",
					"numinlets" : 1,
					"numoutlets" : 0,
					"patching_rect" : [ 356.0, 240.0, 34.0, 20.0 ],
					"text" : "print"
				}

			}
, 			{
				"box" : 				{
					"fontname" : "Arial",
					"fontsize" : 12.0,
					"id" : "obj-29",
					"maxclass" : "newobj",
					"numinlets" : 0,
					"numoutlets" : 0,
					"patching_rect" : [ 0.0, 375.0, 18.0, 20.0 ]
				}

			}
, 			{
				"box" : 				{
					"fontname" : "Arial",
					"fontsize" : 12.0,
					"id" : "obj-30",
					"maxclass" : "newobj",
					"numinlets" : 0,
					"numoutlets" : 0,
					"patching_rect" : [ 0.0, 350.0, 18.0, 20.0 ]
				}

			}
, 			{
				"box" : 				{
					"fontname" : "Arial",
					"fontsize" : 12.0,
					"id" : "obj-31",
					"maxclass" : "newobj",
					"numinlets" : 0,
					"numoutlets" : 0,
					"patching_rect" : [ 0.0, 325.0, 18.0, 20.0 ]
				}

			}
, 			{
				"box" : 				{
					"fontname" : "Arial",
					"fontsize" : 12.0,
					"id" : "obj-32",
					"maxclass" : "newobj",
					"numinlets" : 0,
					"numoutlets" : 0,
					"patching_rect" : [ 0.0, 300.0, 18.0, 20.0 ]
				}

			}
, 			{
				"box" : 				{
					"fontname" : "Arial",
					"fontsize" : 12.0,
					"id" : "obj-33",
					"maxclass" : "newobj",
					"numinlets" : 0,
					"numoutlets" : 0,
					"patching_rect" : [ 0.0, 275.0, 18.0, 20.0 ]
				}

			}
, 			{
				"box" : 				{
					"fontname" : "Arial",
					"fontsize" : 12.0,
					"id" : "obj-35",
					"maxclass" : "newobj",
					"numinlets" : 0,
					"numoutlets" : 0,
					"patching_rect" : [ 0.0, 250.0, 18.0, 20.0 ]
				}

			}
, 			{
				"box" : 				{
					"fontname" : "Arial",
					"fontsize" : 12.0,
					"id" : "obj-36",
					"maxclass" : "newobj",
					"numinlets" : 0,
					"numoutlets" : 0,
					"patching_rect" : [ 0.0, 225.0, 18.0, 20.0 ]
				}

			}
, 			{
				"box" : 				{
					"fontname" : "Arial",
					"fontsize" : 12.0,
					"id" : "obj-37",
					"maxclass" : "newobj",
					"numinlets" : 0,
					"numoutlets" : 0,
					"patching_rect" : [ 0.0, 225.0, 18.0, 20.0 ]
				}

			}
, 			{
				"box" : 				{
					"fontname" : "Arial",
					"fontsize" : 12.0,
					"id" : "obj-41",
					"maxclass" : "newobj",
					"numinlets" : 0,
					"numoutlets" : 0,
					"patching_rect" : [ 0.0, 200.0, 18.0, 20.0 ]
				}

			}
, 			{
				"box" : 				{
					"fontname" : "Arial",
					"fontsize" : 12.0,
					"id" : "obj-43",
					"maxclass" : "newobj",
					"numinlets" : 0,
					"numoutlets" : 0,
					"patching_rect" : [ 0.0, 175.0, 18.0, 20.0 ]
				}

			}
, 			{
				"box" : 				{
					"fontname" : "Arial",
					"fontsize" : 12.0,
					"id" : "obj-44",
					"maxclass" : "newobj",
					"numinlets" : 0,
					"numoutlets" : 0,
					"patching_rect" : [ 0.0, 175.0, 18.0, 20.0 ]
				}

			}
, 			{
				"box" : 				{
					"fontname" : "Arial",
					"fontsize" : 12.0,
					"id" : "obj-45",
					"maxclass" : "newobj",
					"numinlets" : 0,
					"numoutlets" : 0,
					"patching_rect" : [ 0.0, 150.0, 18.0, 20.0 ]
				}

			}
, 			{
				"box" : 				{
					"fontname" : "Arial",
					"fontsize" : 12.0,
					"id" : "obj-46",
					"maxclass" : "newobj",
					"numinlets" : 0,
					"numoutlets" : 0,
					"patching_rect" : [ 0.0, 125.0, 18.0, 20.0 ]
				}

			}
, 			{
				"box" : 				{
					"fontname" : "Arial",
					"fontsize" : 12.0,
					"id" : "obj-47",
					"maxclass" : "newobj",
					"numinlets" : 0,
					"numoutlets" : 0,
					"patching_rect" : [ 0.0, 100.0, 18.0, 20.0 ]
				}

			}
, 			{
				"box" : 				{
					"fontname" : "Arial",
					"fontsize" : 12.0,
					"id" : "obj-48",
					"maxclass" : "newobj",
					"numinlets" : 0,
					"numoutlets" : 0,
					"patching_rect" : [ 0.0, 75.0, 18.0, 20.0 ]
				}

			}
, 			{
				"box" : 				{
					"fontname" : "Arial",
					"fontsize" : 12.0,
					"id" : "obj-49",
					"maxclass" : "newobj",
					"numinlets" : 0,
					"numoutlets" : 0,
					"patching_rect" : [ 0.0, 50.0, 18.0, 20.0 ]
				}

			}
, 			{
				"box" : 				{
					"fontname" : "Arial",
					"fontsize" : 12.0,
					"id" : "obj-50",
					"maxclass" : "newobj",
					"numinlets" : 0,
					"numoutlets" : 0,
					"patching_rect" : [ 0.0, 25.0, 18.0, 20.0 ]
				}

			}
, 			{
				"box" : 				{
					"fontname" : "Arial",
					"fontsize" : 12.0,
					"id" : "obj-38",
					"maxclass" : "newobj",
					"numinlets" : 0,
					"numoutlets" : 0,
					"patching_rect" : [ 0.0, 0.0, 18.0, 20.0 ]
				}

			}
, 			{
				"box" : 				{
					"fontname" : "Arial",
					"fontsize" : 12.0,
					"id" : "obj-25",
					"maxclass" : "newobj",
					"numinlets" : 0,
					"numoutlets" : 0,
					"patching_rect" : [ 0.0, 0.0, 18.0, 20.0 ]
				}

			}
, 			{
				"box" : 				{
					"fontname" : "Arial",
					"fontsize" : 12.0,
					"id" : "obj-3",
					"maxclass" : "newobj",
					"numinlets" : 1,
					"numoutlets" : 4,
					"outlettype" : [ "", "", "", "" ],
					"patching_rect" : [ 240.0, 150.0, 70.0, 20.0 ],
					"text" : "hover"
				}

			}
, 			{
				"box" : 				{
					"autofit" : 1,
					"id" : "obj-2",
					"maxclass" : "fpic",
					"numinlets" : 1,
					"numoutlets" : 0,
					"patching_rect" : [ 139.0, 125.0, 20.0, 20.0 ],
					"pic" : "Vel.jpg",
					"presentation" : 1,
					"presentation_rect" : [ 20.0, 0.0, 20.0, 20.0 ],
					"varname" : "velocity"
				}

			}
, 			{
				"box" : 				{
					"autofit" : 1,
					"id" : "obj-1",
					"maxclass" : "fpic",
					"numinlets" : 1,
					"numoutlets" : 0,
					"patching_rect" : [ 119.0, 125.0, 20.0, 20.0 ],
					"pic" : "trebleclef.png",
					"presentation" : 1,
					"presentation_rect" : [ 0.0, 0.0, 20.0, 20.0 ],
					"varname" : "pitch"
				}

			}
 ],
		"lines" : [ 			{
				"patchline" : 				{
					"destination" : [ "obj-4", 0 ],
					"disabled" : 0,
					"hidden" : 0,
					"source" : [ "obj-5", 0 ]
				}

			}
, 			{
				"patchline" : 				{
					"destination" : [ "obj-5", 0 ],
					"disabled" : 0,
					"hidden" : 0,
					"source" : [ "obj-7", 0 ]
				}

			}
, 			{
				"patchline" : 				{
					"destination" : [ "obj-5", 0 ],
					"disabled" : 0,
					"hidden" : 0,
					"source" : [ "obj-8", 0 ]
				}

			}
 ],
		"dependency_cache" : [ 			{
				"name" : "trebleclef.png",
				"bootpath" : "/Users/id916157/Desktop/Stuff/Personal/Dropbox/msync/m_sync/v0.0.40",
				"patcherrelativepath" : ".",
				"type" : "PNG ",
				"implicit" : 1
			}
, 			{
				"name" : "Vel.jpg",
				"bootpath" : "/Users/id916157/Desktop/Stuff/Personal/Dropbox/msync/m_sync/v0.0.40",
				"patcherrelativepath" : ".",
				"type" : "JPEG",
				"implicit" : 1
			}
 ]
	}

}
